<svg xmlns="http://www.w3.org/2000/svg" width="92" height="88" viewBox="0 0 92 88">
    <g fill="none" fill-rule="evenodd">
        <path fill="#D1D4D1" d="M67.886 9.788c-.261.473-.739.809-1.314.809-4.207 0-7.64 3.502-7.64 7.814 0 .861-.678 1.555-1.52 1.555-.844 0-1.53-.694-1.53-1.555 0-5.52 4.013-10.083 9.206-10.82-5.275-3.734-11.578-6.037-18.376-6.336v7.501c0 .864-.686 1.565-1.53 1.565-.842 0-1.53-.701-1.53-1.565V1.255C36.864 1.56 30.56 3.857 25.283 7.59c5.194.738 9.209 5.302 9.209 10.82 0 .862-.688 1.556-1.53 1.556-.844 0-1.53-.694-1.53-1.555 0-4.312-3.425-7.814-7.64-7.814-.568 0-1.045-.336-1.314-.81A36.233 36.233 0 0 0 10.042 37.16V63.63c8.541 8.646 21.457 14.163 35.91 14.163 13.609 0 25.86-4.891 34.38-12.698V37.16A36.241 36.241 0 0 0 67.886 9.788z"/>
        <path fill="#ECF0F1" d="M55.228 18.5c0 .873.646 1.576 1.44 1.576.793 0 1.43-.703 1.43-1.577 0-4.371 3.23-7.922 7.19-7.922.541 0 .99-.341 1.237-.82-.843-.79-1.72-1.541-2.633-2.229-4.887.75-8.664 5.376-8.664 10.971zM23.829 10.577c3.964 0 7.184 3.551 7.184 7.922 0 .874.645 1.577 1.439 1.577.792 0 1.438-.703 1.438-1.577 0-5.595-3.775-10.222-8.658-10.97a32.112 32.112 0 0 0-2.639 2.228c.254.479.703.82 1.236.82zM44.56 11.293c1.038 0 1.882-.677 1.882-1.51V2.545a56.54 56.54 0 0 0-1.883-.036c-.623 0-1.257.016-1.883.036v7.238c0 .833.847 1.51 1.883 1.51z"/>
        <path fill="#E6E7E8" d="M45.361 78.105c-12.783 0-24.364-4.425-32.81-11.604V77.25c7.628 7.97 19.157 10.582 32.06 10.582 12.158 0 23.094-2.042 30.7-9.237v-9.869c-8.122 5.85-18.557 9.379-29.95 9.379z"/>
        <path fill="#ECF0F1" d="M5.355 33.923c-1.437.253-2.423 1.716-2.423 3.28v3.906c0 .337-.258.614-.573.614C1.058 41.723 0 42.848 0 44.25v4.963c0 1.057.802 1.914 1.788 1.914h.571c.315 0 .573.277.573.614v3.907c0 1.563.986 3.018 2.423 3.279 1.83.33 3.431-1.187 3.431-3.087v-18.83c0-1.901-1.601-3.417-3.431-3.088zM83.76 58.928c1.445-.253 2.433-1.716 2.433-3.28v-3.315c0-.66.5-1.205 1.123-1.205h.014c.988 0 1.788-.857 1.788-1.914v-5.577c0-1.057-.8-1.914-1.788-1.914h-.014c-.623 0-1.123-.545-1.123-1.204v-3.317c0-1.563-.988-3.018-2.433-3.279-1.832-.33-3.428 1.187-3.428 3.087v18.831c0 1.9 1.596 3.416 3.428 3.087z"/>
        <path fill="#F3D55B" d="M90.057 7.84h-2.481L83.78 4.058V1.57c0-.866-.704-1.57-1.571-1.57-.865 0-1.562.704-1.562 1.57v2.487l-3.794 3.784h-2.491c-.866 0-1.562.703-1.562 1.57 0 .864.696 1.57 1.562 1.57h2.491l3.794 3.78v2.49a1.566 1.566 0 1 0 3.133 0v-2.49l3.795-3.78h2.481c.868 0 1.572-.706 1.572-1.57 0-.867-.704-1.57-1.572-1.57z"/>
        <path fill="#ECF0F1" d="M45.182 12.547c-19.331 0-35.14 13.776-35.14 28.381v19.556c8.541 6.387 21.457 12.291 35.91 12.291 13.609 0 25.86-5.445 34.38-11.204V40.928c0-14.605-15.819-28.38-35.15-28.38z"/>
        <path fill="#38454F" d="M45.182 17.566c-19.331 0-35.14 11.77-35.14 24.246v16.703c8.541 5.456 21.457 10.496 35.91 10.496 13.609 0 25.86-4.65 34.38-9.569v-17.63c0-12.477-15.819-24.246-35.15-24.246z"/>
        <path fill="#BCBCBC" d="M17.515 53.115c-1.547 2.197-1.198-4.89-1.198-5.759 0-7.93 6.616-14.197 18.156-17.193.83-.215 7.884-2.524 7.884 0s-6.29 2.842-7.121 3.057c-10.055 2.61-15.825 7.77-15.825 14.136 0 5.759-.35 3.562-1.896 5.759z"/>
    </g>
</svg>
