<svg width="414" height="900" viewBox="0 0 414 900" fill="none" xmlns="http://www.w3.org/2000/svg">
<path d="M0 118.147C1.45125e-05 94.7655 63.8255 45.4891 191.667 37.6295C308.528 30.4449 397.523 86.9299 411.948 96.6854C413.277 97.5842 414 99.0562 414 100.661V825.563C414 828.826 410.925 831.215 407.763 830.408L8.84071 728.578C6.64231 728.017 5.10069 726.431 5.08093 724.162C4.66094 675.957 -1.38586e-05 140.474 0 118.147Z" fill="#322E6F"/>
<path d="M1 138.551C0.999956 117.451 65.4673 72.376 194.594 64.6987C311.65 57.7391 396.783 104.849 411.675 113.717C413.136 114.587 414 116.167 414 117.867V825.616C414 828.862 410.954 831.248 407.802 830.47L4.80172 730.987C2.56888 730.436 1.00003 728.811 1.00003 726.512C1.00003 678.552 1.00004 158.678 1 138.551Z" fill="#2D2965"/>
<path d="M1 179.489C1.00001 146.963 76.8774 98.9583 204.017 90.7808C319.264 83.3683 398.113 130.95 411.857 139.918C413.214 140.803 414 142.32 414 143.941V894.274C414 897.303 411.328 899.636 408.326 899.228L5.32605 844.406C2.8479 844.069 1 842.373 1 839.872C1 786.563 0.999997 210.509 1 179.489Z" fill="#252254"/>
</svg>
