<svg width="767" height="850" viewBox="0 0 767 850" fill="none" xmlns="http://www.w3.org/2000/svg">
<g clip-path="url(#clip0)">
<path d="M0 111.583C2.68867e-05 89.5008 118.247 42.9619 355.093 35.539C571.597 28.7535 736.474 82.1005 763.198 91.314C765.661 92.1629 767 93.5531 767 95.0687V779.698C767 782.78 761.303 785.036 755.445 784.274L16.3788 688.101C12.3059 687.572 9.44983 686.074 9.41322 683.931C8.63512 638.404 -2.56752e-05 132.67 0 111.583Z" fill="#322E6F"/>
<path d="M1.85266 130.854C1.85258 110.926 121.288 68.3551 360.516 61.1043C577.381 54.5314 735.103 99.0241 762.693 107.399C765.399 108.221 767 109.713 767 111.319V779.748C767 782.814 761.357 785.068 755.517 784.333L8.89594 690.377C4.75926 689.856 1.85272 688.322 1.85272 686.15C1.85272 640.855 1.85274 149.863 1.85266 130.854Z" fill="#2D2965"/>
<path d="M1.85266 169.517C1.85268 138.798 142.427 93.4606 377.974 85.7374C591.487 78.7367 737.567 123.675 763.03 132.145C765.544 132.981 767 134.413 767 135.944V844.592C767 847.453 762.05 849.656 756.488 849.271L9.86735 797.495C5.27619 797.176 1.85266 795.574 1.85266 793.212C1.85266 742.865 1.85266 198.814 1.85266 169.517Z" fill="#252254"/>
</g>
<defs>
<clipPath id="clip0">
<rect width="767" height="850" fill="white"/>
</clipPath>
</defs>
</svg>
