<svg width="1920" height="900" viewBox="0 0 1920 900" fill="none" xmlns="http://www.w3.org/2000/svg">
<g clip-path="url(#clip0)">
<path d="M0 254.621C0 254.621 310.915 25.5085 512.5 15.9511C1068.66 -10.417 1920 271.875 1920 271.875V763.125C1920 763.125 2112.5 796.382 1512.5 807.468C912.5 818.553 0 641.182 0 641.182V254.621Z" fill="#322E6F"/>
<path d="M0 275.625C0 275.625 310.915 64.6012 512.5 55.0438C1068.66 28.6757 1920 291.375 1920 291.375V802.218C1920 802.218 2112.5 835.474 1512.5 846.56C912.5 857.646 0 680.275 0 680.275V275.625Z" fill="#2D2965"/>
<path d="M-9.62415 289.875C-9.62415 289.875 310.726 114.986 512.268 105.571C1068.31 79.5972 1919.47 306.499 1919.47 306.499V779.25C1919.47 779.25 2099.38 846 1512.06 885.259C912.184 896.179 -0.624146 779.25 -0.624146 779.25L-9.62415 289.875Z" fill="#252254"/>
</g>
<defs>
<clipPath id="clip0">
<rect width="1920" height="900" fill="white"/>
</clipPath>
</defs>
</svg>
