<svg width="1279" height="850" viewBox="0 0 1279 850" fill="none" xmlns="http://www.w3.org/2000/svg">
<path d="M0 81.4978C0 81.4978 207.115 34.0075 341.4 24.985C711.883 0.0923368 1279 217.547 1279 217.547V730.348C1279 730.348 1279 730.348 1007.55 772.21C736.091 814.071 0 615.23 0 615.23V81.4978Z" fill="#322E6F"/>
<path d="M0 108.536C0 108.536 207.115 61.0147 341.4 51.9863C711.883 27.0774 1279 244.674 1279 244.674V757.809C1279 757.809 1279 781.664 1007.55 799.697C736.091 817.73 0 642.615 0 642.615V108.536Z" fill="#2D2965"/>
<path d="M0 151.56C0 151.56 207.093 104.019 341.364 94.9871C711.808 70.0678 1278.86 287.755 1278.86 287.755V801.105C1278.86 801.105 1293.88 827.472 1007.44 843.011C720.993 858.55 0 685.863 0 685.863V151.56Z" fill="#252254"/>
</svg>
