<svg xmlns="http://www.w3.org/2000/svg" xmlns:xlink="http://www.w3.org/1999/xlink" width="88" height="88" viewBox="0 0 88 88">
    <defs>
        <path id="a" d="M0 0h87.863v87.832H0z"/>
    </defs>
    <g fill="none" fill-rule="evenodd">
        <mask id="b" fill="#fff">
            <use xlink:href="#a"/>
        </mask>
        <path fill="#BAC7C6" d="M85.955.003C75.882 1.33 75.559.423 66.049 4.04c-.431.161-10.352 3.884-10.557 4.301l-3.279 2.862-1.059.326a1.792 1.792 0 0 0-2.116-.326 80.823 80.823 0 0 0-15.036 9.616c-1.52 2.538-2.877 2.093-3.352 5.022l-.87.818a1.798 1.798 0 0 0-2.81-.557c-.724.634-17.33 15.71-9.501 33.27 1.651 4.094 5.669 6.694 10.032 6.491h.648c13.914-.593 35.664-20.377 37.9-26.773a1.838 1.838 0 0 0-1.27-2.385l-2.682-2.95 9.777-.78a1.811 1.811 0 0 0 1.32-.989L87.666 2.678A1.852 1.852 0 0 0 87.56.83a1.777 1.777 0 0 0-1.606-.828z" mask="url(#b)"/>
        <path fill="#48737C" d="M1.822 87.832C.817 87.834.002 87.007 0 85.986c0-.32.08-.634.235-.913C16.152 56.48 28.72 33.898 61.074 17.756a1.811 1.811 0 0 1 2.44.849c.444.919.07 2.029-.835 2.48C31.33 36.72 19.002 58.864 3.406 86.91a1.814 1.814 0 0 1-1.584.921" mask="url(#b)"/>
    </g>
</svg>
