<svg xmlns="http://www.w3.org/2000/svg" width="190" height="21" viewBox="0 0 190 21">
    <path fill="#21055A" fill-rule="evenodd" d="M70.831 12.785c0-2.027-1.383-3.444-3.311-3.444-1.929 0-3.312 1.405-3.312 3.443 0 2.04 1.383 3.444 3.312 3.444 1.928 0 3.311-1.404 3.311-3.443zm5.297 0c0 4.763-3.619 8.215-8.608 8.215-5.006 0-8.609-3.452-8.609-8.216 0-4.78 3.603-8.215 8.609-8.215 4.99 0 8.608 3.436 8.608 8.215zm85.788-1.681h6.207c-.464-1.542-1.57-2.373-3.166-2.373-1.542 0-2.613.84-3.04 2.373zm5.817 4.178h5.263c-1.08 3.52-4.186 5.718-8.038 5.718-4.791 0-8.34-3.516-8.34-8.227 0-4.728 3.52-8.204 8.34-8.204 4.948 0 8.376 3.546 8.376 8.069h-.001c0 .465-.04.93-.11 1.407h-11.4c.346 1.769 1.465 2.683 3.135 2.683 1.235 0 2.267-.543 2.775-1.446zM82.936 6.786l-.825-1.712h-3.544v15.42h5.29v-7.84c0-1.968.783-2.792 2.656-2.792h2.053V5h-1.4c-1.828 0-3.147.527-4.23 1.785zm-29.264 7.286V9.165h3.724v-4.09H53.54V.564h-1.087l-6.879 7.358v1.242h2.81v5.818c0 3.427 2.065 5.511 5.46 5.511h3.639v-4.652h-2.03c-1.116 0-1.78-.666-1.78-1.77zm83.278-7.286l-.826-1.712h-3.542v15.42h5.288v-7.84c0-1.968.784-2.792 2.656-2.792h2.053V5h-1.4c-1.827 0-3.146.527-4.23 1.785zm-35.6 9.057c-2.819 0-4.886-2.243-4.886-5.327 0-3.095 2.067-5.37 4.885-5.37 2.095 0 3.814 1.33 4.498 3.38h5.555C110.593 3.459 106.553 0 101.337 0c-6.058 0-10.582 4.504-10.582 10.516 0 5.98 4.524 10.484 10.582 10.484 5.302 0 9.366-3.568 10.123-8.824h-5.609c-.557 2.222-2.293 3.667-4.502 3.667zm23.495-3.058c0-2.027-1.383-3.444-3.312-3.444-1.928 0-3.312 1.405-3.312 3.443 0 2.04 1.384 3.444 3.312 3.444 1.929 0 3.312-1.404 3.312-3.443zm5.296 0c0 4.763-3.618 8.215-8.608 8.215-5.006 0-8.609-3.452-8.609-8.216 0-4.78 3.603-8.215 8.61-8.215 4.99 0 8.607 3.436 8.607 8.215zm54.757-.43l4.757-7.28H183.9l-2.32 3.883-2.218-3.884h-5.838l4.72 7.42-5.093 8h5.84l2.574-4.567 2.525 4.567H190l-5.102-8.139zm-145.28.43c0-2.027-1.384-3.444-3.312-3.444-1.929 0-3.312 1.405-3.312 3.443 0 2.04 1.383 3.444 3.312 3.444 1.928 0 3.312-1.404 3.312-3.443zm5.297 0c0 4.763-3.62 8.215-8.61 8.215-5.005 0-8.608-3.452-8.608-8.216 0-4.78 3.603-8.215 8.609-8.215 4.99 0 8.609 3.436 8.609 8.215zm106.464 1.287V9.165h3.724v-4.09h-3.857V.564h-1.087l-6.88 7.358v1.242h2.811v5.818c0 3.427 2.064 5.511 5.46 5.511h3.639v-4.652h-2.03c-1.116 0-1.78-.666-1.78-1.77zM23.366.505l2.982 19.99h-5.532L19.263 8.982l-5.279 11.544h-1.62L7.088 8.987 5.557 20.494H0L3.01.505h5.476l4.687 10.877L17.891.505h5.475z"/>
</svg>
