<svg xmlns="http://www.w3.org/2000/svg" xmlns:xlink="http://www.w3.org/1999/xlink" width="53" height="87" viewBox="0 0 53 87">
    <defs>
        <path id="a" d="M.059.006h52.054v42.006H.06z"/>
        <path id="c" d="M.013 0H13.26v19.972H.013z"/>
    </defs>
    <g fill="none" fill-rule="evenodd">
        <g transform="translate(.338 44.598)">
            <mask id="b" fill="#fff">
                <use xlink:href="#a"/>
            </mask>
            <path fill="#4E6371" d="M51.21 30.88c2.663 5.015-.882 11.143-6.448 11.143H7.417c-5.566 0-9.129-6.128-6.448-11.143l9.424-17.725c5.548.019 7.383-5.737 12.949-5.737 5.584 0 3.749 5.737 9.315 5.737 5.566 0 5.584 3.772 11.131 3.772L51.21 30.88z" mask="url(#b)"/>
        </g>
        <path fill="#D4E1F4" d="M37.735 49.16l7.04 13.03c-5.555 0-2.81-3.697-8.365-3.697-5.573 0-7.357-4.502-12.912-4.502-5.554 0-6.533 4.52-12.051 4.502l5.041-9.333a7.482 7.482 0 0 0 .898-3.53V24.43h19.487V45.63a7.047 7.047 0 0 0 .862 3.53z"/>
        <g transform="translate(23.667)">
            <mask id="d" fill="#fff">
                <use xlink:href="#c"/>
            </mask>
            <path fill="#FEDB41" d="M13.26 15.888a4.086 4.086 0 1 1-8.173-.003 4.086 4.086 0 0 1 8.174.003zM3.932.085a3.184 3.184 0 1 1-1.465 6.2 3.184 3.184 0 1 1 1.465-6.2z" mask="url(#d)"/>
        </g>
        <path fill="#FEDB41" d="M17.376 10.115c2.147 0 3.887 1.492 3.887 3.332 0 1.84-1.74 3.331-3.887 3.331-2.148 0-3.889-1.491-3.889-3.331 0-1.84 1.741-3.332 3.889-3.332z"/>
    </g>
</svg>
