<svg xmlns="http://www.w3.org/2000/svg" width="77" height="66" viewBox="0 0 77 66">
    <g fill="none" fill-rule="evenodd" stroke="#FFF" stroke-linecap="round" stroke-linejoin="round" stroke-width="3" transform="translate(2 2)">
        <ellipse cx="36.5" cy="24.113" rx="9.466" ry="4.788"/>
        <ellipse cx="36.5" cy="4.961" rx="9.466" ry="4.788"/>
        <ellipse cx="58.588" cy="14.537" rx="9.466" ry="4.788"/>
        <ellipse cx="15.99" cy="14.537" rx="9.466" ry="4.788"/>
        <path d="M29.36 8.102l-6.8 2.99M51.311 11.476l-7.677-3.377M8.335 17.35l-6.229 2.738a3.194 3.194 0 0 0-1.893 2.927v21.387c0 1.251.723 2.387 1.85 2.905L33.66 61.844c.8.369 1.714.384 2.524.041l34.656-14.61a3.193 3.193 0 0 0 1.94-2.946V23.015c.001-1.27-.742-2.419-1.893-2.927L65.53 17.73M34.922 36.882v25.243M72.203 21.167l-37.28 15.715M34.922 36.882L.784 21.182"/>
    </g>
</svg>
