<svg xmlns="http://www.w3.org/2000/svg" width="241" height="235" viewBox="0 0 241 235">
    <g fill="none" fill-rule="evenodd">
        <path fill="#493869" d="M232.5 121.689c0 55.613-41.393 95.575-114.116 110.88C45.662 247.874-14.818 188.402 3.956 124.978 22.73 61.553 30.445 0 86.114 0 141.804 0 232.5 66.055 232.5 121.689z"/>
        <path fill="#634B7F" d="M192.5 111.49c0 41.159-33.367 74.51-74.5 74.51s-74.5-33.351-74.5-74.51C43.5 70.35 76.867 37 118 37s74.5 33.351 74.5 74.49z"/>
        <path fill="#7B5594" d="M151.5 109.497c0 20.163-16.112 36.503-35.988 36.503-19.88 0-36.012-16.34-36.012-36.503C79.5 89.34 95.632 73 115.512 73c19.876 0 35.988 16.34 35.988 36.497z"/>
        <path fill="#492E64" d="M134.5 115.492C134.5 125.71 126.21 134 116 134s-18.5-8.29-18.5-18.508C97.5 105.27 105.79 97 116 97s18.5 8.27 18.5 18.492z"/>
        <path fill="#F29C1F" d="M228.5 27.998a4.004 4.004 0 0 1-4 4.002c-2.202 0-4-1.794-4-4.002a4.006 4.006 0 0 1 4-3.998c2.207 0 4 1.794 4 3.998zM240.5 129.998a3.992 3.992 0 0 1-3.987 4.002 3.997 3.997 0 0 1-4.013-4.002 3.996 3.996 0 0 1 4.013-3.998 3.99 3.99 0 0 1 3.987 3.998z"/>
        <path fill="#84B5CB" d="M163.5 139.998a4.005 4.005 0 0 1-4.002 4.002 4.004 4.004 0 0 1-3.998-4.002 4.003 4.003 0 0 1 3.998-3.998 4.004 4.004 0 0 1 4.002 3.998zM138.5 87.01a3.978 3.978 0 0 1-3.987 3.99 3.984 3.984 0 0 1-4.013-3.99 3.991 3.991 0 0 1 4.013-4.01 3.986 3.986 0 0 1 3.987 4.01zM75.5 113c0 2.207-1.798 4-4 4-2.207 0-4-1.793-4-4 0-2.202 1.793-4 4-4 2.202 0 4 1.798 4 4z"/>
        <path fill="#F3D55B" d="M240.5 209.998a3.992 3.992 0 0 1-3.987 4.002 3.997 3.997 0 0 1-4.013-4.002 3.996 3.996 0 0 1 4.013-3.998 3.99 3.99 0 0 1 3.987 3.998zM70.5 227.002a4.006 4.006 0 0 1-4 3.998c-2.202 0-4-1.794-4-3.998a4.007 4.007 0 0 1 4-4.002c2.202 0 4 1.794 4 4.002zM19.5 175c0 2.207-1.778 4-3.987 4a3.996 3.996 0 0 1-4.013-4 4 4 0 0 1 4.013-4 3.994 3.994 0 0 1 3.987 4z"/>
        <path fill="#F29C1F" d="M15.5 21.99c0 2.208-1.798 4.01-4 4.01a4.01 4.01 0 0 1-4-4.01 3.99 3.99 0 0 1 4-3.99c2.202 0 4 1.777 4 3.99z"/>
        <path fill="#F3D55B" d="M70.5 27.998a4.007 4.007 0 0 1-4 4.002c-2.202 0-4-1.794-4-4.002a4.006 4.006 0 0 1 4-3.998c2.202 0 4 1.794 4 3.998zM115.5 49.998a4.007 4.007 0 0 1-4 4.002c-2.207 0-4-1.794-4-4.002a4.003 4.003 0 0 1 4-3.998c2.202 0 4 1.794 4 3.998zM51.5 160.99c0 2.208-1.798 4.01-4 4.01s-4-1.802-4-4.01a3.994 3.994 0 0 1 4-3.99c2.202 0 4 1.777 4 3.99zM119.5 209.998a3.992 3.992 0 0 1-3.987 4.002 3.997 3.997 0 0 1-4.013-4.002 3.996 3.996 0 0 1 4.013-3.998 3.99 3.99 0 0 1 3.987 3.998zM212.5 175c0 2.207-1.798 4-4 4s-4-1.793-4-4c0-2.202 1.798-4 4-4s4 1.798 4 4zM151.5 27.998a4.007 4.007 0 0 1-4 4.002c-2.202 0-4-1.794-4-4.002a4.006 4.006 0 0 1 4-3.998c2.202 0 4 1.794 4 3.998z"/>
        <path fill="#F29C1F" d="M22.5 72.509c0 5.244-4.27 9.491-9.515 9.491C7.741 82 3.5 77.753 3.5 72.509 3.5 67.264 7.74 63 12.985 63c5.245 0 9.515 4.264 9.515 9.509z"/>
        <g stroke-linecap="round" stroke-width="1.6">
            <path stroke="#955BA5" d="M114.948 98.021c-20.052 0-36.26 16.097-36.26 36 0 19.907 20.243 36.004 40.295 36.004 34.21 1.11 61.485-15.822 68.194-49.15 7.887-39.22-17.73-77.35-57.22-85.207-46.47-9.216-91.665 20.708-100.973 66.829-10.92 54.282 24.535 107.083 79.195 117.925 53.536 10.646 105.854-16.272 129.306-62.393"/>
            <path stroke="#8697CB" d="M119.41 134.02c24.44 1.331 40.573-15.391 40.573-35.294 0-19.907-16.214-36-36.26-36-34.216-1.114-65.5 15.803-72.23 49.147-7.887 39.205 17.73 77.35 57.214 85.206 46.476 9.221 91.691-20.708 100.974-66.829 10.94-54.282-24.514-107.083-79.19-117.94-44.898-8.91-88.95 8.591-115.827 41.7"/>
        </g>
    </g>
</svg>
