<svg xmlns="http://www.w3.org/2000/svg" width="78" height="88" viewBox="0 0 78 88">
    <g fill="none" fill-rule="evenodd">
        <path fill="#FFD83B" fill-opacity=".74" d="M35.574 88c0-13.13-22.269-35.106-35.574-35.106 13.305 0 35.574-21.977 35.574-35.107 0 13.13 22.27 35.107 35.575 35.107-13.305 0-35.575 21.976-35.575 35.106z"/>
        <path fill="#FFEAA9" d="M36.043 66.468c0-5.075-8.5-13.574-13.575-13.574 5.075 0 13.575-8.5 13.575-13.575 0 5.075 8.499 13.575 13.574 13.575-5.078 0-13.574 8.496-13.574 13.574z"/>
        <path fill="#D4E1F4" d="M60.458 38.974c0-6.365-10.696-17.019-17.086-17.019 6.39 0 17.086-10.654 17.086-17.019 0 6.365 10.695 17.02 17.085 17.02-6.39 0-17.085 10.653-17.085 17.018z"/>
        <path fill="#C445AD" fill-opacity=".436" d="M10.678 86.954c0-3.28-5.509-8.766-8.8-8.766 3.291 0 8.8-5.487 8.8-8.765 0 3.278 5.508 8.765 8.8 8.765-3.292.003-8.8 5.49-8.8 8.766z"/>
        <path fill="#38454F" fill-opacity=".191" d="M22.028 24.331c0-4.55-7.644-12.165-12.213-12.165 4.569 0 12.213-7.615 12.213-12.166 0 4.55 7.645 12.166 12.213 12.166-4.568 0-12.213 7.614-12.213 12.165z"/>
    </g>
</svg>
