<svg xmlns="http://www.w3.org/2000/svg" xmlns:xlink="http://www.w3.org/1999/xlink" width="220" height="228" viewBox="0 0 220 228">
    <defs>
        <path id="a" d="M.302.005h202.68v197.72H.302z"/>
    </defs>
    <g fill="none" fill-rule="evenodd">
        <path fill="#F3D55B" d="M215.412 199.412h-6.475l-9.85-9.843v-6.481A4.093 4.093 0 0 0 195 179a4.097 4.097 0 0 0-4.088 4.088v6.48l-9.843 9.844h-6.481a4.097 4.097 0 0 0-4.088 4.088 4.097 4.097 0 0 0 4.088 4.088h6.48l9.844 9.843v6.481A4.097 4.097 0 0 0 195 228a4.093 4.093 0 0 0 4.088-4.088v-6.48l9.849-9.844h6.475a4.093 4.093 0 0 0 4.088-4.088 4.093 4.093 0 0 0-4.088-4.088z"/>
        <g transform="translate(.5 6)">
            <mask id="b" fill="#fff">
                <use xlink:href="#a"/>
            </mask>
            <path fill="#4482C3" d="M202.982 104.925c0 51.247-41.497 92.8-92.69 92.8-51.172 0-92.664-41.553-92.664-92.8 0-51.267 41.492-92.824 92.665-92.824 51.192 0 92.69 41.557 92.69 92.824z" mask="url(#b)"/>
            <path fill="#F3D55B" d="M8.069 4.045c0 2.225-1.813 4.015-4.035 4.015C1.808 8.06 0 6.27 0 4.045 0 1.795 1.808.005 4.034.005a4.03 4.03 0 0 1 4.035 4.04z" mask="url(#b)"/>
        </g>
        <path fill="#F3D55B" d="M17.5 204.01a3.987 3.987 0 0 1-4.013 3.99 3.982 3.982 0 0 1-3.987-3.99c0-2.208 1.778-4.01 3.987-4.01a4.004 4.004 0 0 1 4.013 4.01zM83.5 219.987A3.984 3.984 0 0 1 79.513 224a3.99 3.99 0 0 1-4.013-4.013A3.984 3.984 0 0 1 79.513 216a3.979 3.979 0 0 1 3.987 3.987zM58.5 123c0 2.202-1.798 4-4 4-2.207 0-4-1.798-4-4s1.793-4 4-4c2.202 0 4 1.798 4 4zM180.5 4c0 2.202-1.794 4-4.002 4a4.006 4.006 0 0 1-3.998-4c0-2.207 1.794-4 3.998-4a4.004 4.004 0 0 1 4.002 4zM217.5 172.987a4 4 0 0 1-4 4.013c-2.207 0-4-1.778-4-4.013a3.99 3.99 0 0 1 4-3.987c2.202 0 4 1.778 4 3.987z"/>
        <path fill="#A4E869" d="M117.053 103.206c.609.277 1.454.943 1.826 1.498 2.812 4.115 1.198 10.163 3.99 11.64 2.203 1.165 3.44 3.546 2.515 5.851-3.849 9.457-.528 20.275 8.41 27.704 6.289 5.22 1.062 17.315-4.245 26.832-1.886 3.39 1.494 7.329 5.151 6.007 5.775-2.048 10.57-5.043 16.113-9.83 8.034-6.935 9.764-14.48 17.743-20.35.08-.081.156-.157.176-.258 2.047-5.987 8.37-19.05 1.987-22.378-5.956-3.112-8.195-12.1-13.99-18.228-.67-.686-1.635-1.044-2.596-1.18-7.113-.908-10.338-6.345-15.132-2.739-3.596 2.719-7.62 1.065-8.879-3.268-.412-1.402-1.121-2.663-3.717-3.47-1.962-.61-2.928-2.834-2.219-4.766.02-.04.02-.06.04-.08.941-2.598-4.38-2.205-7.092-1.75-.77.135 1.806-2.936.96-2.447-3.32 1.972-7.465-1.417-7.289-5.3.176-3.94.92-3.743 7.642-4.51 7.234-3.39 10.73-.928 10.493 7.369 4.482.67 6.032-1.322 4.699-5.952-.393-1.336-.08-2.854.764-3.979 8.256-10.738 15.132-15.428 27.749-19.76 2.062-.712 3.2-2.896 2.63-5.004-2.022-7.45-5.166-19.17-10.513-20.018-1.373-.217-2.928-1.538-3.496-2.8-1.867-4.332-3.144-6.162-6.7-7.206-2.712-.807-5.464 1.2-5.464 4.04-.06 8.664-.04 16.154-9.945 6.244-8.17-8.196-10.55-12.65-6.032-14.798-.216-1.75 0 .1-.196-1.655-19.156-2.305-37.669 1.478-53.625 9.81-.297.162-.393.555-.237.847 6.268 11.565 7.546 17.653 6.857 31.17-.036.751.08 1.478.397 2.169 5.463 11.781 12.496 31.794 24.484 36.41 5.835 2.264 11.218 1.416 16.741 4.135z"/>
    </g>
</svg>
